<svg width="80" height="80" viewBox="0 0 80 80" fill="none" xmlns="http://www.w3.org/2000/svg">
<path d="M8 70.0625C8 73.8926 11.0714 77 14.8571 77H65.1429C68.9286 77 72 73.8926 72 70.0625V30.75H8V70.0625ZM53.7143 41.7344C53.7143 40.7805 54.4857 40 55.4286 40H61.1429C62.0857 40 62.8571 40.7805 62.8571 41.7344V47.5156C62.8571 48.4695 62.0857 49.25 61.1429 49.25H55.4286C54.4857 49.25 53.7143 48.4695 53.7143 47.5156V41.7344ZM53.7143 60.2344C53.7143 59.2805 54.4857 58.5 55.4286 58.5H61.1429C62.0857 58.5 62.8571 59.2805 62.8571 60.2344V66.0156C62.8571 66.9695 62.0857 67.75 61.1429 67.75H55.4286C54.4857 67.75 53.7143 66.9695 53.7143 66.0156V60.2344ZM35.4286 41.7344C35.4286 40.7805 36.2 40 37.1429 40H42.8571C43.8 40 44.5714 40.7805 44.5714 41.7344V47.5156C44.5714 48.4695 43.8 49.25 42.8571 49.25H37.1429C36.2 49.25 35.4286 48.4695 35.4286 47.5156V41.7344ZM35.4286 60.2344C35.4286 59.2805 36.2 58.5 37.1429 58.5H42.8571C43.8 58.5 44.5714 59.2805 44.5714 60.2344V66.0156C44.5714 66.9695 43.8 67.75 42.8571 67.75H37.1429C36.2 67.75 35.4286 66.9695 35.4286 66.0156V60.2344ZM17.1429 41.7344C17.1429 40.7805 17.9143 40 18.8571 40H24.5714C25.5143 40 26.2857 40.7805 26.2857 41.7344V47.5156C26.2857 48.4695 25.5143 49.25 24.5714 49.25H18.8571C17.9143 49.25 17.1429 48.4695 17.1429 47.5156V41.7344ZM17.1429 60.2344C17.1429 59.2805 17.9143 58.5 18.8571 58.5H24.5714C25.5143 58.5 26.2857 59.2805 26.2857 60.2344V66.0156C26.2857 66.9695 25.5143 67.75 24.5714 67.75H18.8571C17.9143 67.75 17.1429 66.9695 17.1429 66.0156V60.2344ZM65.1429 12.25H58.2857V5.3125C58.2857 4.04062 57.2571 3 56 3H51.4286C50.1714 3 49.1429 4.04062 49.1429 5.3125V12.25H30.8571V5.3125C30.8571 4.04062 29.8286 3 28.5714 3H24C22.7429 3 21.7143 4.04062 21.7143 5.3125V12.25H14.8571C11.0714 12.25 8 15.3574 8 19.1875V26.125H72V19.1875C72 15.3574 68.9286 12.25 65.1429 12.25Z" fill="#2848C6"/>
</svg>
