<svg width="80" height="80" viewBox="0 0 80 80" fill="none" xmlns="http://www.w3.org/2000/svg">
<path fill-rule="evenodd" clip-rule="evenodd" d="M4 40C4 20.1177 20.1177 4 40 4C48.138 4 55.6453 6.70028 61.6748 11.2537C70.3763 17.825 76 28.2557 76 40C76 51.8535 70.2712 62.3689 61.4313 68.9286C55.4437 73.3717 48.0288 76 40 76C32.2084 76 24.9949 73.5247 19.1031 69.3176C18.7537 69.0681 18.3369 68.9286 17.9077 68.9286H5.69788C4.93577 68.9286 4.45376 68.1102 4.82332 67.4437L8.89147 60.1065C9.24432 59.4701 9.21976 58.6945 8.85407 58.0654C5.76757 52.7555 4 46.5842 4 40ZM22 45C24.7614 45 27 42.7614 27 40C27 37.2386 24.7614 35 22 35C19.2386 35 17 37.2386 17 40C17 42.7614 19.2386 45 22 45ZM45 40C45 42.7614 42.7614 45 40 45C37.2386 45 35 42.7614 35 40C35 37.2386 37.2386 35 40 35C42.7614 35 45 37.2386 45 40ZM58 45C60.7614 45 63 42.7614 63 40C63 37.2386 60.7614 35 58 35C55.2386 35 53 37.2386 53 40C53 42.7614 55.2386 45 58 45Z" fill="black"/>
</svg>
