<svg width="80" height="80" viewBox="0 0 80 80" fill="none" xmlns="http://www.w3.org/2000/svg">
<path d="M40 5.10059C20.6653 5.10059 5 20.7659 5 40.1006C5 59.4353 20.6653 75.1006 40 75.1006C59.3347 75.1006 75 59.4353 75 40.1006C75 20.7659 59.3347 5.10059 40 5.10059ZM48.0585 54.5099L35.6109 45.4635C35.1734 45.1389 34.9194 44.6308 34.9194 44.0945V20.3425C34.9194 19.4111 35.6815 18.649 36.6129 18.649H43.3871C44.3186 18.649 45.0806 19.4111 45.0806 20.3425V39.776L54.0423 46.2962C54.8044 46.8466 54.9597 47.905 54.4093 48.6671L50.4294 54.1429C49.879 54.8909 48.8206 55.0603 48.0585 54.5099Z" fill="#2848C6"/>
</svg>
