<svg width="80" height="80" viewBox="0 0 80 80" fill="none" xmlns="http://www.w3.org/2000/svg">
<path fill-rule="evenodd" clip-rule="evenodd" d="M21.4706 12C12.3741 12 5 19.4193 5 28.5714V53.4286C5 62.5807 12.3741 70 21.4706 70H58.5294C67.6259 70 75 62.5807 75 53.4286V28.5714C75 19.4193 67.6259 12 58.5294 12H21.4706ZM18.2749 26.2895C17.5908 25.7772 16.6234 25.92 16.1143 26.6083C15.6052 27.2966 15.747 28.2699 16.4312 28.7821L33.0324 41.2122C36.8623 44.0798 42.1085 44.0798 45.9384 41.2122L62.5396 28.7821C63.2237 28.2699 63.3656 27.2966 62.8565 26.6083C62.3474 25.92 61.38 25.7772 60.6959 26.2895L44.0947 38.7195C41.359 40.7678 37.6118 40.7678 34.8761 38.7195L18.2749 26.2895Z" fill="black"/>
</svg>
