<svg width="80" height="80" viewBox="0 0 80 80" fill="none" xmlns="http://www.w3.org/2000/svg">
<path fill-rule="evenodd" clip-rule="evenodd" d="M5 29C5 16.8497 13.9543 7 25 7C30.9735 7 36.3353 9.88065 40 14.448C43.6647 9.88065 49.0265 7 55 7C66.0457 7 75 16.8497 75 29C75 46.2897 51.246 65.7763 40 73C28.4109 65.9666 5 46.5432 5 29ZM58.688 14.6671C57.9518 14.2872 57.047 14.576 56.6671 15.3122C56.2872 16.0483 56.576 16.9531 57.3122 17.333C60.4959 18.9761 63.1113 21.8948 64.6115 25.5673C64.9247 26.3342 65.8004 26.702 66.5673 26.3887C67.3342 26.0754 67.702 25.1998 67.3887 24.4328C65.6423 20.1576 62.56 16.6653 58.688 14.6671Z" fill="black"/>
</svg>
