<svg width="80" height="80" viewBox="0 0 80 80" fill="none" xmlns="http://www.w3.org/2000/svg">
<path d="M75 14.2453C75 19.3513 70.8607 23.4906 65.7547 23.4906C60.6487 23.4906 56.5094 19.3513 56.5094 14.2453C56.5094 9.13925 60.6487 5 65.7547 5C70.8607 5 75 9.13925 75 14.2453Z" fill="#2F4FCD"/>
<path fill-rule="evenodd" clip-rule="evenodd" d="M20.8491 10.283H51.7733C51.4171 11.5426 51.2264 12.8717 51.2264 14.2453C51.2264 22.269 57.731 28.7736 65.7547 28.7736C67.1283 28.7736 68.4574 28.583 69.717 28.2267V59.1509C69.717 67.9041 62.6211 75 53.8679 75H20.8491C12.0959 75 5 67.9041 5 59.1509V26.1321C5 17.3789 12.0959 10.283 20.8491 10.283ZM59.8192 38.4364C60.7792 37.3379 60.667 35.6692 59.5685 34.7092C58.47 33.7492 56.8013 33.8614 55.8413 34.9599L44.2453 48.2283L34.9135 37.5506C34.4119 36.9766 33.6868 36.6474 32.9246 36.6474C32.1623 36.6474 31.4372 36.9766 30.9356 37.5506L13.5771 57.4127C12.6171 58.5112 12.7293 60.1799 13.8278 61.14C14.9263 62.1 16.595 61.9877 17.555 60.8892L32.9246 43.303L42.2563 53.9807C42.758 54.5546 43.4831 54.8839 44.2453 54.8839C45.0076 54.8839 45.7327 54.5546 46.2343 53.9807L59.8192 38.4364Z" fill="#2F4FCD"/>
</svg>
