<svg width="80" height="80" viewBox="0 0 80 80" fill="none" xmlns="http://www.w3.org/2000/svg">
<path d="M7.5232 31.6264C3.67512 26.477 4.31325 19.3321 8.85884 14.7865L16.7001 6.94524C19.2937 4.35159 23.4989 4.35159 26.0925 6.94524L33.9196 14.7723C36.5132 17.3659 36.5132 21.5711 33.9196 24.1647C31.6539 26.4304 31.4584 30.0512 33.5423 32.4851C35.799 35.1208 38.0676 37.625 40.2213 39.7787C42.375 41.9324 44.8792 44.201 47.5149 46.4577C49.9488 48.5416 53.5696 48.3461 55.8353 46.0804C58.4289 43.4868 62.6341 43.4868 65.2277 46.0804L73.0548 53.9075C75.6484 56.5011 75.6484 60.7063 73.0548 63.2999L65.2135 71.1412C60.668 75.6867 53.523 76.3249 48.3736 72.4768C41.5607 67.3857 32.336 60.151 26.0925 53.9075C19.849 47.664 12.6143 38.4393 7.5232 31.6264Z" fill="black"/>
<path fill-rule="evenodd" clip-rule="evenodd" d="M45.5815 8.95947C45.5815 7.73681 46.5727 6.74565 47.7953 6.74565C61.8559 6.74565 73.2543 18.144 73.2543 32.2046C73.2543 33.4273 72.2631 34.4184 71.0405 34.4184C69.8178 34.4184 68.8266 33.4273 68.8266 32.2046C68.8266 20.5893 59.4106 11.1733 47.7953 11.1733C46.5727 11.1733 45.5815 10.1821 45.5815 8.95947ZM45.5815 17.8148C45.5815 16.5921 46.5727 15.6009 47.7953 15.6009C56.9653 15.6009 64.399 23.0346 64.399 32.2046C64.399 33.4273 63.4078 34.4184 62.1852 34.4184C60.9625 34.4184 59.9714 33.4273 59.9714 32.2046C59.9714 25.48 54.52 20.0286 47.7953 20.0286C46.5727 20.0286 45.5815 19.0374 45.5815 17.8148Z" fill="black"/>
</svg>
