<svg width="80" height="80" viewBox="0 0 80 80" fill="none" xmlns="http://www.w3.org/2000/svg">
<path d="M72.8904 13.0779L42.8904 0.577891C41.9766 0.198795 40.9969 0.00366211 40.0076 0.00366211C39.0182 0.00366211 38.0386 0.198795 37.1248 0.577891L7.12476 13.0779C4.32788 14.2341 2.49976 16.9685 2.49976 19.9998C2.49976 51.0154 20.3904 72.4529 37.1091 79.4216C38.9529 80.1872 41.031 80.1872 42.8748 79.4216C56.2654 73.8435 77.4998 54.5779 77.4998 19.9998C77.4998 16.9685 75.6716 14.2341 72.8904 13.0779ZM65.5154 30.9216L36.7654 59.6716C35.7966 60.6404 34.2029 60.6404 33.2341 59.6716L16.9841 43.4216C16.0154 42.4529 16.0154 40.8591 16.9841 39.8904L20.5154 36.3591C21.4841 35.3904 23.0779 35.3904 24.0466 36.3591L34.9998 47.3123L58.4529 23.8591C59.4216 22.8904 61.0154 22.8904 61.9841 23.8591L65.5154 27.3904C66.4998 28.3748 66.4998 29.9529 65.5154 30.9216Z" fill="#2848C6"/>
</svg>
