<svg width="80" height="80" viewBox="0 0 80 80" fill="none" xmlns="http://www.w3.org/2000/svg">
<path fill-rule="evenodd" clip-rule="evenodd" d="M42.8906 0.577891L72.8906 13.0779C75.6719 14.2341 77.5 16.9685 77.5 19.9998C77.5 54.5779 56.2656 73.8435 42.875 79.4216C41.0313 80.1872 38.9531 80.1872 37.1094 79.4216C20.3906 72.4529 2.5 51.0154 2.5 19.9998C2.5 16.9685 4.32812 14.2341 7.125 13.0779L37.125 0.577891C38.0388 0.198795 39.0185 0.00366211 40.0078 0.00366211C40.9972 0.00366211 41.9768 0.198795 42.8906 0.577891ZM23.2325 28.5962L33.3863 38.75L23.2325 48.9038C22.4515 49.6849 22.4515 50.9512 23.2325 51.7323L26.768 55.2678C27.5491 56.0489 28.8154 56.0489 29.5965 55.2678L39.7503 45.114L49.9041 55.2678C50.6851 56.0489 51.9515 56.0489 52.7325 55.2678L56.268 51.7323C57.0491 50.9512 57.0491 49.6849 56.268 48.9038L46.1142 38.75L56.268 28.5962C57.0491 27.8152 57.0491 26.5489 56.268 25.7678L52.7325 22.2323C51.9515 21.4512 50.6851 21.4512 49.9041 22.2323L39.7503 32.3861L29.5965 22.2323C28.8154 21.4512 27.5491 21.4512 26.768 22.2323L23.2325 25.7678C22.4515 26.5489 22.4515 27.8152 23.2325 28.5962Z" fill="black"/>
</svg>
