<svg width="80" height="80" viewBox="0 0 80 80" fill="none" xmlns="http://www.w3.org/2000/svg">
<path d="M24.75 17.5H22.5V6.25C22.5 5.0125 21.4875 4 20.25 4H15.75C14.5125 4 13.5 5.0125 13.5 6.25V17.5H11.25C10.0125 17.5 9 18.5125 9 19.75V24.25C9 25.4875 10.0125 26.5 11.25 26.5H13.5V73.75C13.5 74.9875 14.5125 76 15.75 76H20.25C21.4875 76 22.5 74.9875 22.5 73.75V26.5H24.75C25.9875 26.5 27 25.4875 27 24.25V19.75C27 18.5125 25.9875 17.5 24.75 17.5ZM69.75 35.5H67.5V6.25C67.5 5.0125 66.4875 4 65.25 4H60.75C59.5125 4 58.5 5.0125 58.5 6.25V35.5H56.25C55.0125 35.5 54 36.5125 54 37.75V42.25C54 43.4875 55.0125 44.5 56.25 44.5H58.5V73.75C58.5 74.9875 59.5125 76 60.75 76H65.25C66.4875 76 67.5 74.9875 67.5 73.75V44.5H69.75C70.9875 44.5 72 43.4875 72 42.25V37.75C72 36.5125 70.9875 35.5 69.75 35.5ZM47.25 53.5H45V6.25C45 5.0125 43.9875 4 42.75 4H38.25C37.0125 4 36 5.0125 36 6.25V53.5H33.75C32.5125 53.5 31.5 54.5125 31.5 55.75V60.25C31.5 61.4875 32.5125 62.5 33.75 62.5H36V73.75C36 74.9875 37.0125 76 38.25 76H42.75C43.9875 76 45 74.9875 45 73.75V62.5H47.25C48.4875 62.5 49.5 61.4875 49.5 60.25V55.75C49.5 54.5125 48.4875 53.5 47.25 53.5Z" fill="#2848C6"/>
</svg>
