<svg width="80" height="80" viewBox="0 0 80 80" fill="none" xmlns="http://www.w3.org/2000/svg">
<path fill-rule="evenodd" clip-rule="evenodd" d="M18 6C11.3726 6 6 11.3726 6 18V63C6 69.6274 11.3726 75 18 75H63C69.6274 75 75 69.6274 75 63V18C75 11.3726 69.6274 6 63 6H18ZM33.7396 38.75L23.5858 28.5962C22.8047 27.8152 22.8047 26.5489 23.5858 25.7678L27.1213 22.2323C27.9024 21.4512 29.1687 21.4512 29.9497 22.2323L40.1036 32.3861L50.2574 22.2323C51.0384 21.4512 52.3047 21.4512 53.0858 22.2323L56.6213 25.7678C57.4024 26.5489 57.4024 27.8152 56.6213 28.5962L46.4675 38.75L56.6213 48.9038C57.4024 49.6849 57.4024 50.9512 56.6213 51.7323L53.0858 55.2678C52.3047 56.0489 51.0384 56.0489 50.2574 55.2678L40.1036 45.114L29.9497 55.2678C29.1687 56.0489 27.9024 56.0489 27.1213 55.2678L23.5858 51.7323C22.8047 50.9512 22.8047 49.6849 23.5858 48.9038L33.7396 38.75Z" fill="black"/>
</svg>
