<svg width="80" height="80" viewBox="0 0 80 80" fill="none" xmlns="http://www.w3.org/2000/svg">
<path fill-rule="evenodd" clip-rule="evenodd" d="M18 6C11.3726 6 6 11.3726 6 18V63C6 69.6274 11.3726 75 18 75H63C69.6274 75 75 69.6274 75 63V18C75 11.3726 69.6274 6 63 6H18ZM22 33C20.8954 33 20 33.8954 20 35V58C20 59.1046 20.8954 60 22 60H28C29.1046 60 30 59.1046 30 58V35C30 33.8954 29.1046 33 28 33H22ZM35 23C35 21.8954 35.8954 21 37 21H43C44.1046 21 45 21.8954 45 23V58C45 59.1046 44.1046 60 43 60H37C35.8954 60 35 59.1046 35 58V23ZM52 41C50.8954 41 50 41.8954 50 43V58C50 59.1046 50.8954 60 52 60H58C59.1046 60 60 59.1046 60 58V43C60 41.8954 59.1046 41 58 41H52Z" fill="black"/>
</svg>
