<svg width="80" height="80" viewBox="0 0 80 80" fill= "none" xmlns="http://www.w3.org/2000/svg">
<path fill-rule="evenodd" clip-rule="evenodd" d="M18 5C11.3726 5 6 10.3726 6 17V62C6 68.6274 11.3726 74 18 74H63C69.6274 74 75 68.6274 75 62V17C75 10.3726 69.6274 5 63 5H18ZM65.5154 30.9216L36.7654 59.6716C35.7966 60.6404 34.2029 60.6404 33.2341 59.6716L16.9841 43.4216C16.0154 42.4529 16.0154 40.8591 16.9841 39.8904L20.5154 36.3591C21.4841 35.3904 23.0779 35.3904 24.0466 36.3591L34.9998 47.3122L58.4529 23.8591C59.4216 22.8904 61.0154 22.8904 61.9841 23.8591L65.5154 27.3904C66.4998 28.3748 66.4998 29.9529 65.5154 30.9216Z" fill="#FFD012"/>
</svg>
