<svg width="80" height="80" viewBox="0 0 80 80" fill="none" xmlns="http://www.w3.org/2000/svg">
<path d="M36.7411 9.02793C38.0742 6.32402 41.9258 6.32403 43.2589 9.02793L51.2591 25.255C51.7885 26.3288 52.8117 27.073 53.9954 27.2451L71.8844 29.8473C74.8653 30.2809 76.0555 33.9479 73.8985 36.0526L60.9539 48.6836C60.0974 49.5194 59.7066 50.7235 59.9088 51.9037L62.9646 69.739C63.4738 72.7109 60.3577 74.9772 57.6916 73.574L41.6911 65.1533C40.6324 64.5962 39.3676 64.5962 38.3089 65.1533L22.3084 73.574C19.6423 74.9772 16.5262 72.7108 17.0354 69.739L20.0912 51.9037C20.2934 50.7235 19.9026 49.5194 19.0461 48.6836L6.10145 36.0525C3.9445 33.9478 5.13474 30.2809 8.11557 29.8473L26.0046 27.2451C27.1883 27.073 28.2115 26.3288 28.7409 25.255L36.7411 9.02793Z" fill="#FFD012"/>
</svg>
