<svg width="80" height="80" viewBox="0 0 80 80" fill="none" xmlns="http://www.w3.org/2000/svg">
<path d="M15.5 36.5714C19.3609 36.5714 22.5 33.4964 22.5 29.7143C22.5 25.9321 19.3609 22.8571 15.5 22.8571C11.6391 22.8571 8.5 25.9321 8.5 29.7143C8.5 33.4964 11.6391 36.5714 15.5 36.5714ZM64.5 36.5714C68.3609 36.5714 71.5 33.4964 71.5 29.7143C71.5 25.9321 68.3609 22.8571 64.5 22.8571C60.6391 22.8571 57.5 25.9321 57.5 29.7143C57.5 33.4964 60.6391 36.5714 64.5 36.5714ZM68 40H61C59.075 40 57.3359 40.7607 56.0672 41.9929C60.475 44.3607 63.6031 48.6357 64.2812 53.7143H71.5C73.4359 53.7143 75 52.1821 75 50.2857V46.8571C75 43.075 71.8609 40 68 40ZM40 40C46.7703 40 52.25 34.6321 52.25 28C52.25 21.3679 46.7703 16 40 16C33.2297 16 27.75 21.3679 27.75 28C27.75 34.6321 33.2297 40 40 40ZM48.4 43.4286H47.4922C45.2172 44.5 42.6906 45.1429 40 45.1429C37.3094 45.1429 34.7938 44.5 32.5078 43.4286H31.6C24.6437 43.4286 19 48.9571 19 55.7714V58.8571C19 61.6964 21.3516 64 24.25 64H55.75C58.6484 64 61 61.6964 61 58.8571V55.7714C61 48.9571 55.3562 43.4286 48.4 43.4286ZM23.9328 41.9929C22.6641 40.7607 20.925 40 19 40H12C8.13906 40 5 43.075 5 46.8571V50.2857C5 52.1821 6.56406 53.7143 8.5 53.7143H15.7078C16.3969 48.6357 19.525 44.3607 23.9328 41.9929Z" fill="#2848C6"/>
</svg>
